<?xml version="1.0" encoding="UTF-8" standalone="no"?>
<!-- Created with Inkscape (http://www.inkscape.org/) -->

<svg
   version="1.1"
   id="svg2"
   width="377.95334"
   height="188.976"
   viewBox="0 0 377.95334 188.976"
   xmlns="http://www.w3.org/2000/svg"
   xmlns:svg="http://www.w3.org/2000/svg">
  <defs
     id="defs6">
    <clipPath
       clipPathUnits="userSpaceOnUse"
       id="clipPath16">
      <path
         d="M 0,0 H 283.465 V 141.732 H 0 Z"
         id="path14" />
    </clipPath>
  </defs>
  <g
     id="g8"
     transform="matrix(1.3333333,0,0,-1.3333333,0,188.976)">
    <g
       id="g10">
      <g
         id="g12"
         clip-path="url(#clipPath16)">
        <g
           id="g18"
           transform="translate(252.4839,39.2984)">
          <path
             d="m 0,0 c 0.009,0.191 0.014,0.381 0.014,0.57 0,6.144 -5.003,9.359 -9.944,9.359 -1.193,0 -2.399,-0.189 -3.599,-0.562 -0.978,0.37 -2.053,0.562 -3.178,0.562 -2.11,0 -3.973,-0.276 -5.562,-0.822 -1.453,0.601 -3.106,0.905 -4.936,0.905 -2.621,0 -5.111,-0.553 -7.323,-1.615 -1.553,0.971 -3.741,1.74 -6.772,1.74 -2.295,0 -4.422,-0.447 -6.266,-1.306 -1.698,0.86 -3.728,1.306 -5.989,1.306 -2.239,0 -4.323,-0.423 -6.131,-1.237 -1.559,0.739 -3.371,1.112 -5.414,1.112 -1.458,0 -2.889,-0.175 -4.257,-0.516 -0.95,2.977 -3.702,5.075 -7.034,5.075 -2.763,0 -5.192,-1.454 -6.848,-4.105 -0.238,-0.383 -0.469,-0.648 -0.64,-0.816 -0.011,-0.001 -0.023,-0.003 -0.035,-0.005 -0.664,0.187 -1.359,0.283 -2.056,0.283 -1.192,0 -2.277,-0.251 -3.208,-0.517 -1.192,0.347 -2.437,0.517 -3.777,0.517 -0.443,0 -0.879,-0.015 -1.31,-0.046 1.713,1.322 2.805,3.384 2.805,5.703 0,2.75 -1.456,5.147 -3.996,6.58 -1.262,0.735 -2.766,1.163 -4.052,1.41 l -1.396,1.423 -0.139,4.901 c -0.078,2.711 0.231,5.679 0.507,6.697 0.181,0.035 0.396,0.075 0.598,0.113 1.056,0.194 2.37,0.437 3.906,1.035 11.386,4.429 16.334,13.954 13.932,26.82 -1.565,8.375 -7.288,14.341 -16.115,16.8 -2.288,0.637 -4.5,0.953 -6.325,1.102 -3.322,7.797 -12.112,21.426 -32.596,19.841 -20.807,-1.601 -27.155,-15.208 -29.073,-22.627 -8.974,-3.726 -17.198,-12.398 -15.023,-26.467 1.764,-11.41 10.027,-17.082 17.945,-18.823 0.106,-0.926 0.113,-1.415 0.11,-1.588 -0.076,-4.773 -0.223,-7.803 -0.24,-8.128 l -0.263,-4.993 c -1.563,0.883 -3.397,1.373 -5.355,1.373 -5.446,0 -11.324,-3.434 -11.324,-8.982 0,-0.727 0.105,-1.434 0.305,-2.104 -0.263,-0.018 -0.525,-0.042 -0.784,-0.072 -1.144,9.148 -8.165,14.713 -18.897,14.713 -7.024,0 -13.182,-1.823 -17.808,-5.272 -4.465,-3.328 -7.026,-7.928 -7.026,-12.619 0,-5.963 3.889,-10.441 9.469,-11.208 -0.131,-0.308 -0.222,-0.449 -0.347,-0.644 -0.414,-0.646 -1.385,-2.16 -1.385,-4.376 0,-4.076 3.248,-7.268 7.393,-7.268 1.707,0 3.155,0.526 4.374,1.071 1.448,-0.513 3.46,-1.071 5.79,-1.071 3.317,0 6.441,0.974 9.183,2.842 2.334,-1.933 5.485,-2.967 9.178,-2.967 2.093,0 4.009,0.335 5.809,1.019 2.192,-0.926 4.833,-1.118 7.344,-0.566 v -5.645 c 0,-5.485 3.91,-16.132 18.713,-17.169 0.34,-0.023 0.68,-0.034 1.022,-0.034 3.852,0 7.638,1.466 10.524,2.983 3.178,-1.671 7.363,-3.237 11.552,-2.947 14.797,1.035 18.706,11.683 18.706,17.175 l -0.012,5.328 c 0.221,-0.011 0.441,-0.018 0.665,-0.018 1.684,0 3.3,0.347 4.83,1.036 2.783,-1.294 6.182,-1.352 9.291,-0.258 1.231,-0.518 2.567,-0.778 3.99,-0.778 1.537,0 3.075,0.281 4.526,0.822 1.375,-0.541 2.905,-0.822 4.509,-0.822 1.778,0 3.635,0.454 5.454,1.325 1.962,-0.954 4.26,-1.451 6.758,-1.451 2.184,0 4.174,0.364 6.039,1.107 1.69,-0.7 3.618,-1.065 5.673,-1.065 2.305,0 4.37,0.423 6.163,1.262 1.794,-0.83 3.863,-1.262 6.092,-1.262 2.555,0 4.861,0.543 6.795,1.585 2.035,-1.07 4.458,-1.627 7.132,-1.627 1.602,0 3.138,0.206 4.587,0.613 0.868,-0.322 1.805,-0.488 2.776,-0.488 0.543,0 1.087,0.046 1.794,0.105 0.537,0.044 1.274,0.105 1.719,0.105 1.382,0 2.681,0.326 3.805,0.931 1.514,-0.745 3.229,-1.141 5.019,-1.141 5.822,0 9.374,3.756 10.642,5.385 0.67,0.87 2.063,2.681 2.063,5.438 C 3.066,-3.524 1.874,-1.336 0,0"
             style="fill:#2d71c1;fill-opacity:1;fill-rule:nonzero;stroke:none"
             id="path20" />
        </g>
        <g
           id="g22"
           transform="translate(94.9406,79.8242)">
          <path
             d="m 0,0 c 0,0 1.136,-4.927 1.089,-7.827 -0.083,-5.249 -0.248,-8.377 -0.248,-8.377 0,0 9.759,4.615 21.045,6.011 12.078,1.495 22.787,-2.739 22.787,-2.739 0,0 -6.6,6.724 -18.778,7.194 -8.24,0.317 -18.206,-1.716 -18.206,-1.716 0,0 -0.395,3.31 -0.996,6.974 -0.551,3.362 -2.241,7.347 -2.241,7.347 0,0 -11.288,-3.868 -14.57,5.977 -3.282,9.846 6.989,14.543 6.989,14.543 0,0 0.668,-1.542 1.283,-2.978 0.616,-1.436 2.437,-2.848 2.437,-2.848 0,0 -2.365,24.033 18.679,26.524 23.65,2.799 21.753,-19.779 21.753,-19.779 0,0 20.076,3.84 21.208,-8.817 C 63.192,8.753 51.771,8.237 51.771,8.237 c 0,0 0.622,1.867 0.533,4.685 -0.066,2.091 -1.927,5.775 -1.927,5.775 0,0 0,-7.098 -4.021,-11.723 -3.141,-3.613 -9.03,-5.711 -9.03,-5.711 0,0 2.366,-0.872 6.078,0.24 3.352,1.004 3.819,1.574 3.819,1.574 0,0 -0.198,-2.673 0,-5.333 0.314,-4.201 2.556,-8.56 2.556,-8.56 0,0 -0.216,7.569 1.413,10.336 2.198,3.736 4.769,2.756 7.882,3.967 4.527,1.761 12.248,5.996 9.759,19.319 -2.65,14.19 -20.631,12.474 -20.631,12.474 0,0 -4.544,21.549 -27.279,19.8 C -2.024,53.315 -2.771,34.014 -2.771,34.014 c 0,0 -16.843,-3.67 -14.273,-20.298 C -14.85,-0.48 0,0 0,0"
             style="fill:#ffffff;fill-opacity:1;fill-rule:nonzero;stroke:none"
             id="path24" />
        </g>
        <g
           id="g26"
           transform="translate(131.0454,14.7156)">
          <path
             d="m 0,0 c -4.842,0.907 -7.709,4.342 -10.335,4.359 -3.861,0.022 -5.729,-1.619 -5.729,-1.619 0,0 -1.868,1.641 -5.727,1.619 C -24.419,4.342 -27.286,0.907 -32.128,0 c -3.984,-0.747 -7.471,2.491 -7.471,2.491 0,0 0,-9.589 12.453,-10.461 4.983,-0.348 11.082,4.11 11.082,4.11 0,0 6.1,-4.458 11.083,-4.11 C 7.471,-7.098 7.471,2.491 7.471,2.491 7.471,2.491 3.985,-0.747 0,0"
             style="fill:#ffffff;fill-opacity:1;fill-rule:nonzero;stroke:none"
             id="path28" />
        </g>
        <g
           id="g30"
           transform="translate(57.6417,38.24)">
          <path
             d="m 0,0 c -1.17,-3.849 -3.221,-6.567 -5.688,-6.567 -1.088,0 -1.715,0.544 -1.715,1.632 0,1.129 1.799,12.003 3.22,16.981 0.669,2.426 1.213,3.68 1.883,4.518 C -0.335,16.228 1.338,14.388 1.338,9.578 1.338,6.022 0.879,2.886 0,0 m -4.893,18.947 c -9.286,0 -18.111,-4.601 -18.111,-11.168 0,-2.927 1.883,-4.6 4.475,-4.6 3.305,0 5.647,3.094 5.647,4.266 0,0.292 -0.125,0.46 -0.419,0.46 -0.208,0 -0.878,-0.293 -1.422,-0.293 -1.087,0 -1.714,0.627 -1.714,1.966 0,2.802 3.974,6.858 9.452,7.194 -1.129,-0.795 -2.342,-1.673 -3.053,-4.517 -1.13,-4.559 -3.137,-16.019 -3.848,-17.86 -0.794,-2.05 -1.381,-2.3 -1.381,-2.844 0,-0.334 0.251,-0.544 0.67,-0.544 1.171,0 3.304,1.507 4.266,1.507 0.711,0 3.095,-1.507 5.897,-1.507 4.309,0 8.24,2.803 10.456,8.365 1.046,2.635 1.423,5.397 1.423,8.867 0,7.823 -5.647,10.708 -12.338,10.708"
             style="fill:#ffffff;fill-opacity:1;fill-rule:nonzero;stroke:none"
             id="path32" />
        </g>
        <g
           id="g34"
           transform="translate(89.0943,46.9813)">
          <path
             d="m 0,0 c 0,-1.255 1.046,-2.259 2.342,-2.259 1.59,0 3.097,1.799 3.097,3.472 0,1.255 -0.838,2.216 -2.344,2.216 C 1.506,3.429 0,1.672 0,0"
             style="fill:#ffffff;fill-opacity:1;fill-rule:nonzero;stroke:none"
             id="path36" />
        </g>
        <g
           id="g38"
           transform="translate(73.7856,40.7905)">
          <path
             d="m 0,0 c 0.671,0 1.004,-0.334 1.004,-0.961 0,-1.004 -1.547,-3.095 -3.931,-3.555 C -2.927,-2.048 -1.254,0 0,0 m 22.293,-8.783 c 0.419,0.544 0.67,0.879 0.67,1.339 0,0.251 -0.209,0.586 -0.585,0.586 -0.251,0 -0.419,-0.127 -0.712,-0.419 -0.543,-0.543 -0.877,-0.879 -1.589,-0.879 -0.752,0 -1.379,0.628 -1.379,1.716 0,2.761 1.337,5.394 1.337,7.068 0,0.712 -0.502,1.088 -1.422,1.088 -2.426,0 -4.642,-0.629 -4.642,-1.548 0,-0.543 0.25,-0.627 0.25,-1.338 0,-1.34 -1.086,-3.641 -1.327,-6.018 -0.031,-0.029 -0.059,-0.055 -0.094,-0.089 -0.543,-0.543 -0.877,-0.879 -1.589,-0.879 -0.753,0 -1.338,0.628 -1.338,1.716 0,4.015 3.345,12.505 3.345,16.018 0,2.092 -1.38,3.263 -3.555,3.263 -2.384,0 -4.6,-1.38 -4.6,-2.259 0,-0.334 0.208,-0.502 0.585,-0.502 0.921,0 1.631,-0.669 1.631,-2.05 C 7.279,1.738 4.253,-3.486 4.076,-7.268 3.164,-8.003 1.9,-8.866 0.21,-8.866 c -2.007,0 -3.137,1.129 -3.137,2.593 4.182,0.334 6.984,2.635 6.984,5.02 0,1.797 -1.295,3.052 -4.14,3.052 -5.562,0 -8.825,-3.639 -8.825,-7.696 0,-4.015 2.761,-5.771 6.692,-5.771 3.212,0 5.157,1.283 6.516,2.545 0.491,-1.422 1.746,-2.42 3.857,-2.42 2.297,0 3.926,1.239 4.887,2.305 0.465,-1.343 1.768,-2.305 3.939,-2.305 2.633,0 4.433,1.631 5.31,2.76"
             style="fill:#ffffff;fill-opacity:1;fill-rule:nonzero;stroke:none"
             id="path40" />
        </g>
        <g
           id="g42"
           transform="translate(100.9735,54.5099)">
          <path
             d="m 0,0 c -0.879,0 -4.727,-3.22 -4.727,-6.232 0,-1.422 0.712,-2.217 2.217,-2.217 1.381,0 2.218,0.962 2.218,2.175 0,0.878 -0.461,1.213 -0.461,2.008 0,2.05 1.339,2.928 1.339,3.722 C 0.586,-0.251 0.335,0 0,0"
             style="fill:#ffffff;fill-opacity:1;fill-rule:nonzero;stroke:none"
             id="path44" />
        </g>
        <g
           id="g46"
           transform="translate(110.6341,37.6964)">
          <path
             d="m 0,0 c 1.381,0 1.966,1.004 1.966,2.133 0,1.715 -1.379,2.885 -4.433,2.885 -3.138,0 -5.772,-1.337 -5.772,-3.972 0,-3.137 4.141,-3.514 4.141,-5.982 0,-0.752 -0.335,-1.129 -0.92,-1.129 -0.753,0 -1.13,0.711 -1.13,1.757 0,1.003 -0.669,1.547 -1.798,1.547 -0.962,0 -1.924,-0.794 -1.924,-2.134 0,-2.258 2.3,-3.637 5.437,-3.637 3.68,0 5.856,1.84 5.856,4.558 0,3.053 -4.601,3.388 -4.601,5.856 0,0.795 0.669,1.38 1.213,1.38 0.461,0 0.795,-0.168 0.795,-0.585 C -1.17,2.3 -1.504,2.048 -1.504,1.421 -1.504,0.627 -0.794,0 0,0"
             style="fill:#ffffff;fill-opacity:1;fill-rule:nonzero;stroke:none"
             id="path48" />
        </g>
        <g
           id="g50"
           transform="translate(160.0731,33.9737)">
          <path
             d="m 0,0 c -0.544,-1.255 -1.381,-1.965 -2.175,-1.965 -0.92,0 -1.422,0.878 -1.422,1.965 0,2.3 1.045,6.692 3.429,6.692 0.879,0 1.255,-0.46 1.255,-1.213 C 1.087,3.848 0.502,1.087 0,0 m 27.394,6.817 c 0.67,0 1.004,-0.334 1.004,-0.961 0,-1.004 -1.547,-3.096 -3.931,-3.556 0,2.468 1.673,4.517 2.927,4.517 m 11.462,1.924 c -3.137,0 -5.772,-1.338 -5.772,-3.973 0,-3.136 4.141,-3.513 4.141,-5.981 0,-0.752 -0.336,-1.129 -0.921,-1.129 -0.752,0 -1.129,0.711 -1.129,1.757 0,1.003 -0.669,1.547 -1.798,1.547 -0.743,0 -1.481,-0.478 -1.781,-1.311 -0.92,-0.754 -2.223,-1.701 -3.992,-1.701 -2.008,0 -3.137,1.13 -3.137,2.594 4.183,0.334 6.985,2.635 6.985,5.018 0,1.799 -1.297,3.054 -4.141,3.054 -5.562,0 -8.825,-3.638 -8.825,-7.697 0,-0.294 0.02,-0.574 0.048,-0.844 C 18.504,0.05 18.477,0.028 18.445,0 c -0.67,-0.543 -1.507,-1.338 -2.343,-1.338 -1.003,0 -1.63,0.459 -1.63,1.714 0,1.381 0.543,3.514 0.878,4.727 0.293,1.004 0.752,1.338 1.798,1.338 0.502,0 0.962,0.586 0.962,1.422 0,0.335 -0.251,0.46 -0.586,0.46 -1.254,0 -1.422,0.293 -1.422,0.837 0,0.71 0.586,2.425 0.586,3.345 0,0.335 -0.209,0.67 -0.669,0.67 -0.376,0 -0.712,-0.251 -1.131,-0.92 C 13.801,10.498 11.753,8.323 9.536,8.323 9.076,8.323 8.824,7.529 8.824,7.11 8.824,6.358 9.954,6.692 9.954,6.148 9.954,4.139 8.769,2.124 8.676,-0.404 8.655,-0.424 8.637,-0.438 8.615,-0.46 8.072,-1.004 7.737,-1.338 7.026,-1.338 c -0.753,0 -1.422,0.627 -1.422,1.714 0,3.262 1.464,6.526 1.464,7.529 0,0.459 -0.251,0.627 -0.627,0.627 -0.962,0 -2.76,-0.794 -3.472,-0.794 -0.669,0 -1.297,0.794 -3.513,0.794 -5.707,0 -8.247,-3.846 -8.469,-7.795 -0.047,-0.035 -0.092,-0.068 -0.148,-0.109 -0.418,-0.336 -1.087,-0.796 -2.008,-0.796 -2.174,0 -2.509,3.598 -3.345,6.609 -0.669,2.259 -1.631,3.012 -3.137,3.639 4.35,1.38 6.106,6.357 8.574,8.95 0.92,0.963 1.924,1.381 2.719,1.381 0.376,0 0.585,0.209 0.585,0.502 0,0.334 -0.168,0.502 -0.627,0.753 -0.753,0.46 -2.677,0.878 -4.35,0.878 -4.016,0 -5.186,-9.118 -9.034,-11.042 0.752,2.593 1.296,4.935 1.296,6.524 0,3.431 -2.384,5.187 -6.4,5.187 -6.022,0 -13.634,-4.643 -13.634,-11.753 0,-2.928 1.882,-4.768 4.392,-4.768 3.053,0 5.311,3.011 5.311,4.266 0,0.293 -0.125,0.461 -0.418,0.461 -0.292,0 -0.794,-0.336 -1.338,-0.336 -0.879,0 -1.673,0.629 -1.673,2.008 0,3.388 3.596,7.78 6.399,7.78 1.13,0 1.84,-0.544 1.84,-1.757 0,-6.315 -5.312,-19.49 -5.312,-23.046 0,-0.711 0.335,-0.961 0.837,-0.961 0.669,0 3.179,0.25 4.475,0.25 0.585,0 0.879,0.167 0.879,0.879 0,2.551 1.004,7.487 2.509,12.38 1.213,-0.125 1.256,-2.091 1.256,-4.684 0,-4.308 0.668,-8.658 5.185,-8.658 2.676,0 4.434,2.133 5.312,3.303 0.012,0.018 0.021,0.03 0.032,0.046 0.545,-2.198 2.246,-3.349 4.276,-3.349 3.054,0 5.271,2.216 5.271,2.216 0,0 0.71,-2.216 3.22,-2.216 2.362,0 4.046,1.309 5.004,2.394 0.52,-1.409 1.804,-2.394 4.03,-2.394 2.264,0 4.655,1.816 5.949,3.224 0.916,-2.306 3.241,-3.35 6.264,-3.35 3.199,0 5.14,1.274 6.499,2.53 0.649,-1.567 2.651,-2.488 5.212,-2.488 3.682,0 5.857,1.84 5.857,4.559 0,3.053 -4.601,3.388 -4.601,5.856 0,0.794 0.669,1.38 1.213,1.38 0.46,0 0.794,-0.168 0.794,-0.586 0,-0.376 -0.334,-0.628 -0.334,-1.255 0,-0.794 0.71,-1.421 1.505,-1.421 1.381,0 1.966,1.004 1.966,2.133 0,1.715 -1.38,2.885 -4.433,2.885"
             style="fill:#ffffff;fill-opacity:1;fill-rule:nonzero;stroke:none"
             id="path52" />
        </g>
        <g
           id="g54"
           transform="translate(211.1839,42.7151)">
          <path
             d="m 0,0 c -3.137,0 -5.773,-1.338 -5.773,-3.973 0,-3.137 4.141,-3.514 4.141,-5.982 0,-0.752 -0.334,-1.129 -0.92,-1.129 -0.752,0 -1.129,0.712 -1.129,1.757 0,1.003 -0.669,1.547 -1.798,1.547 -0.962,0 -1.924,-0.795 -1.924,-2.133 0,-2.259 2.3,-3.638 5.437,-3.638 3.681,0 5.855,1.839 5.855,4.559 0,3.053 -4.6,3.387 -4.6,5.855 0,0.795 0.669,1.38 1.213,1.38 0.46,0 0.794,-0.168 0.794,-0.585 0,-0.376 -0.334,-0.628 -0.334,-1.255 0,-0.795 0.71,-1.421 1.505,-1.421 1.381,0 1.966,1.003 1.966,2.132 C 4.433,-1.17 3.053,0 0,0"
             style="fill:#ffffff;fill-opacity:1;fill-rule:nonzero;stroke:none"
             id="path56" />
        </g>
        <g
           id="g58"
           transform="translate(225.3622,40.791)">
          <path
             d="m 0,0 c 0.67,0 1.004,-0.335 1.004,-0.962 0,-1.003 -1.548,-3.095 -3.931,-3.554 C -2.927,-2.049 -1.255,0 0,0 m 22.879,-6.859 c -0.251,0 -0.419,-0.126 -0.712,-0.419 -0.543,-0.543 -0.878,-0.878 -1.589,-0.878 -0.753,0 -1.338,0.419 -1.338,1.506 0,1.715 1.171,3.806 1.171,5.731 0,1.589 -0.92,2.635 -3.22,2.635 -2.468,0 -4.936,-2.051 -5.688,-2.971 0,0 0.335,1.213 0.335,1.883 0,0.711 -0.502,1.088 -1.423,1.088 -2.426,0 -4.685,-0.629 -4.685,-1.548 0,-0.544 0.294,-0.628 0.294,-1.339 0,-1.188 -0.486,-3.313 -0.948,-5.286 C 4.965,-6.536 4.849,-6.626 4.727,-6.734 3.807,-7.487 2.342,-8.866 0.209,-8.866 c -2.007,0 -3.136,1.129 -3.136,2.593 4.182,0.334 6.985,2.635 6.985,5.018 0,1.798 -1.297,3.054 -4.142,3.054 -5.562,0 -8.824,-3.639 -8.824,-7.696 0,-4.015 2.76,-5.772 6.692,-5.772 3.389,0 5.369,1.429 6.736,2.754 -0.153,-0.733 -0.254,-1.339 -0.254,-1.708 0,-0.711 0.335,-0.921 0.879,-0.921 0.628,0 2.258,0.21 3.513,0.21 0.627,0 0.92,0.167 0.92,0.878 0,1.631 1.087,5.187 1.799,6.608 0.92,1.841 1.923,2.552 2.635,2.552 0.585,0 0.961,-0.502 0.961,-1.171 0,-1.632 -1.338,-3.304 -1.338,-5.857 0,-1.797 1.465,-3.22 3.848,-3.22 2.635,0 4.434,1.632 5.312,2.761 0.418,0.544 0.669,0.878 0.669,1.339 0,0.25 -0.208,0.585 -0.585,0.585"
             style="fill:#ffffff;fill-opacity:1;fill-rule:nonzero;stroke:none"
             id="path60" />
        </g>
      </g>
    </g>
  </g>
</svg>
